REM DIRINDEX 1\2,1\3
REM DIRNAME folder01,folder02,folder03
TITLE ""
FILE "1961-1980.mp3" MP3
  TRACK 01 AUDIO
    TITLE "0:"
    INDEX 01 00:00:00
  TRACK 02 AUDIO
    TITLE "2:cjc039_2921"
    INDEX 01 00:00:25
  TRACK 03 AUDIO
    TITLE "0:"
    INDEX 01 00:01:36
  TRACK 04 AUDIO
    TITLE "3:cjc039_2922"
    INDEX 01 00:02:14
  TRACK 05 AUDIO
    TITLE "0:"
    INDEX 01 00:05:56
  TRACK 06 AUDIO
    TITLE "2:cjc039_2923"
    INDEX 01 00:07:31
  TRACK 07 AUDIO
    TITLE "0:"
    INDEX 01 00:08:44
  TRACK 08 AUDIO
    TITLE "3:cjc039_2924"
    INDEX 01 00:09:24
  TRACK 09 AUDIO
    TITLE "0:"
    INDEX 01 00:13:35
  TRACK 10 AUDIO
    TITLE "2:cjc039_2925"
    INDEX 01 00:15:11
  TRACK 11 AUDIO
    TITLE "0:"
    INDEX 01 00:16:28
  TRACK 12 AUDIO
    TITLE "3:cjc039_2926"
    INDEX 01 00:17:06
  TRACK 13 AUDIO
    TITLE "0:"
    INDEX 01 00:19:65
  TRACK 14 AUDIO
    TITLE "2:cjc039_2927"
    INDEX 01 00:21:33
  TRACK 15 AUDIO
    TITLE "0:"
    INDEX 01 00:22:50
  TRACK 16 AUDIO
    TITLE "3:cjc039_2928"
    INDEX 01 00:23:32
  TRACK 17 AUDIO
    TITLE "0:"
    INDEX 01 00:26:11
  TRACK 18 AUDIO
    TITLE "2:cjc039_2929"
    INDEX 01 00:27:57
  TRACK 19 AUDIO
    TITLE "0:"
    INDEX 01 00:28:55
  TRACK 20 AUDIO
    TITLE "3:cjc039_2930"
    INDEX 01 00:29:33
  TRACK 21 AUDIO
    TITLE "0:"
    INDEX 01 00:32:19
  TRACK 22 AUDIO
    TITLE "2:cjc039_2931"
    INDEX 01 00:33:64
  TRACK 23 AUDIO
    TITLE "0:"
    INDEX 01 00:35:08
  TRACK 24 AUDIO
    TITLE "3:cjc039_2932"
    INDEX 01 00:35:59
  TRACK 25 AUDIO
    TITLE "0:"
    INDEX 01 00:39:35
  TRACK 26 AUDIO
    TITLE "2:cjc039_2933"
    INDEX 01 00:41:06
  TRACK 27 AUDIO
    TITLE "0:"
    INDEX 01 00:42:19
  TRACK 28 AUDIO
    TITLE "3:cjc039_2934"
    INDEX 01 00:43:03
  TRACK 29 AUDIO
    TITLE "0:"
    INDEX 01 00:46:49
  TRACK 30 AUDIO
    TITLE "2:cjc039_2935"
    INDEX 01 00:48:26
  TRACK 31 AUDIO
    TITLE "0:"
    INDEX 01 00:49:49
  TRACK 32 AUDIO
    TITLE "3:cjc039_2936"
    INDEX 01 00:50:29
  TRACK 33 AUDIO
    TITLE "0:"
    INDEX 01 00:53:47
  TRACK 34 AUDIO
    TITLE "2:cjc039_2937"
    INDEX 01 00:55:20
  TRACK 35 AUDIO
    TITLE "0:"
    INDEX 01 00:56:35
  TRACK 36 AUDIO
    TITLE "3:cjc039_2938"
    INDEX 01 00:57:11
  TRACK 37 AUDIO
    TITLE "0:"
    INDEX 01 01:00:02
  TRACK 38 AUDIO
    TITLE "2:cjc039_2939"
    INDEX 01 01:01:54
  TRACK 39 AUDIO
    TITLE "0:"
    INDEX 01 01:02:71
  TRACK 40 AUDIO
    TITLE "3:cjc039_2940"
    INDEX 01 01:03:47
  TRACK 41 AUDIO
    TITLE "0:"
    INDEX 01 01:06:49
  TRACK 42 AUDIO
    TITLE "2:cjc039_2941"
    INDEX 01 01:08:27
  TRACK 43 AUDIO
    TITLE "0:"
    INDEX 01 01:09:34
  TRACK 44 AUDIO
    TITLE "3:cjc039_2942"
    INDEX 01 01:10:16
  TRACK 45 AUDIO
    TITLE "0:"
    INDEX 01 01:13:44
  TRACK 46 AUDIO
    TITLE "2:cjc039_2943"
    INDEX 01 01:15:19
  TRACK 47 AUDIO
    TITLE "0:"
    INDEX 01 01:16:46
  TRACK 48 AUDIO
    TITLE "3:cjc039_2944"
    INDEX 01 01:17:28
  TRACK 49 AUDIO
    TITLE "0:"
    INDEX 01 01:21:65
  TRACK 50 AUDIO
    TITLE "2:cjc039_2945"
    INDEX 01 01:23:42
  TRACK 51 AUDIO
    TITLE "0:"
    INDEX 01 01:24:55
  TRACK 52 AUDIO
    TITLE "3:cjc039_2946"
    INDEX 01 01:25:29
  TRACK 53 AUDIO
    TITLE "0:"
    INDEX 01 01:28:39
  TRACK 54 AUDIO
    TITLE "2:cjc039_2947"
    INDEX 01 01:30:15
  TRACK 55 AUDIO
    TITLE "0:"
    INDEX 01 01:31:47
  TRACK 56 AUDIO
    TITLE "3:cjc039_2948"
    INDEX 01 01:32:27
  TRACK 57 AUDIO
    TITLE "0:"
    INDEX 01 01:36:05
  TRACK 58 AUDIO
    TITLE "2:cjc039_2949"
    INDEX 01 01:37:54
  TRACK 59 AUDIO
    TITLE "0:"
    INDEX 01 01:38:59
  TRACK 60 AUDIO
    TITLE "3:cjc039_2950"
    INDEX 01 01:39:33
  TRACK 61 AUDIO
    TITLE "0:"
    INDEX 01 01:43:02
  TRACK 62 AUDIO
    TITLE "2:cjc039_2951"
    INDEX 01 01:44:50
  TRACK 63 AUDIO
    TITLE "0:"
    INDEX 01 01:46:08
  TRACK 64 AUDIO
    TITLE "3:cjc039_2952"
    INDEX 01 01:46:59
  TRACK 65 AUDIO
    TITLE "0:"
    INDEX 01 01:50:41
  TRACK 66 AUDIO
    TITLE "2:cjc039_2953"
    INDEX 01 01:52:20
  TRACK 67 AUDIO
    TITLE "0:"
    INDEX 01 01:53:35
  TRACK 68 AUDIO
    TITLE "3:cjc039_2954"
    INDEX 01 01:54:05
  TRACK 69 AUDIO
    TITLE "0:"
    INDEX 01 01:57:27
  TRACK 70 AUDIO
    TITLE "2:cjc039_2955"
    INDEX 01 01:59:06
  TRACK 71 AUDIO
    TITLE "0:"
    INDEX 01 02:00:31
  TRACK 72 AUDIO
    TITLE "3:cjc039_2956"
    INDEX 01 02:01:05
  TRACK 73 AUDIO
    TITLE "0:"
    INDEX 01 02:04:35
  TRACK 74 AUDIO
    TITLE "2:cjc039_2957"
    INDEX 01 02:06:10
  TRACK 75 AUDIO
    TITLE "0:"
    INDEX 01 02:07:20
  TRACK 76 AUDIO
    TITLE "3:cjc039_2958"
    INDEX 01 02:07:73
  TRACK 77 AUDIO
    TITLE "0:"
    INDEX 01 02:10:47
  TRACK 78 AUDIO
    TITLE "2:cjc039_2959"
    INDEX 01 02:12:25
  TRACK 79 AUDIO
    TITLE "0:"
    INDEX 01 02:13:71
  TRACK 80 AUDIO
    TITLE "3:cjc039_2960"
    INDEX 01 02:14:47
  TRACK 81 AUDIO
    TITLE "0:"
    INDEX 01 02:18:37
